<svg width="32" height="32" viewBox="0 0 32 32" fill="none" xmlns="http://www.w3.org/2000/svg">
<path d="M20.5 4H11.5C7.3585 4 4 7.3585 4 11.5V20.5C4 24.6415 7.3585 28 11.5 28H20.5C24.6415 28 28 24.6415 28 20.5V11.5C28 7.3585 24.6415 4 20.5 4ZM25.75 20.5C25.75 23.395 23.395 25.75 20.5 25.75H11.5C8.605 25.75 6.25 23.395 6.25 20.5V11.5C6.25 8.605 8.605 6.25 11.5 6.25H20.5C23.395 6.25 25.75 8.605 25.75 11.5V20.5Z" fill="white"/>
<path d="M16 9.99902C12.6865 9.99902 10 12.6855 10 15.999C10 19.3125 12.6865 21.999 16 21.999C19.3135 21.999 22 19.3125 22 15.999C22 12.6855 19.3135 9.99902 16 9.99902ZM16 19.749C13.933 19.749 12.25 18.066 12.25 15.999C12.25 13.9305 13.933 12.249 16 12.249C18.067 12.249 19.75 13.9305 19.75 15.999C19.75 18.066 18.067 19.749 16 19.749Z" fill="white"/>
<path d="M22.45 10.348C22.8916 10.348 23.2495 9.99007 23.2495 9.54852C23.2495 9.10697 22.8916 8.74902 22.45 8.74902C22.0085 8.74902 21.6505 9.10697 21.6505 9.54852C21.6505 9.99007 22.0085 10.348 22.45 10.348Z" fill="white"/>
</svg>
