<svg width="204" height="139" viewBox="0 0 204 139" fill="none" xmlns="http://www.w3.org/2000/svg">
<g clip-path="url(#clip0)">
<path d="M14.8797 110.981L2.83422 94.3857V120.057H0V88.8682H2.34532L16.0913 107.847L29.7593 88.8682H32.1826V120.057H29.3483V94.315L17.3454 110.981H14.8797Z" fill="white"/>
<path d="M50.5058 101.558H52.5606V119.37H50.5058V117.184C49.6214 118.106 48.557 118.836 47.3784 119.33C46.1998 119.824 44.9322 120.071 43.6541 120.056C41.1096 120.056 38.6694 119.047 36.8702 117.251C35.071 115.455 34.0602 113.019 34.0602 110.478C34.0602 107.938 35.071 105.502 36.8702 103.706C38.6694 101.91 41.1096 100.901 43.6541 100.901C44.9322 100.886 46.1998 101.133 47.3784 101.627C48.557 102.121 49.6214 102.851 50.5058 103.772V101.558ZM50.5058 107.274C50.127 106.488 49.6193 105.771 49.0037 105.152C48.3077 104.443 47.4744 103.883 46.5548 103.506C45.6351 103.129 44.6481 102.943 43.6541 102.959C41.6546 102.959 39.737 103.752 38.3232 105.163C36.9093 106.575 36.1151 108.489 36.1151 110.486C36.1151 112.482 36.9093 114.396 38.3232 115.808C39.737 117.219 41.6546 118.012 43.6541 118.012C44.6497 118.026 45.6377 117.836 46.5575 117.456C47.4774 117.075 48.3097 116.511 49.0037 115.798C49.6223 115.182 50.1304 114.464 50.5058 113.676V107.274Z" fill="white"/>
<path d="M57.4354 106.977V120.057H55.3098V101.608H57.4354V103.454C58.277 102.63 59.2738 101.979 60.3682 101.541C61.4627 101.103 62.6333 100.885 63.8124 100.901V103.023C62.8766 103.007 61.9475 103.183 61.0823 103.54C60.2172 103.896 59.4342 104.426 58.7817 105.095C58.2331 105.645 57.7783 106.281 57.4354 106.977Z" fill="white"/>
<path d="M87.1522 101.558H89.207V119.37H87.1522V117.184C85.8182 118.543 84.109 119.475 82.2426 119.86C80.3762 120.245 78.4372 120.066 76.6729 119.347C74.9085 118.628 73.3988 117.4 72.3362 115.82C71.2736 114.241 70.7063 112.381 70.7067 110.478C70.7067 107.938 71.7174 105.502 73.5166 103.706C75.3158 101.91 77.7561 100.9 80.3005 100.9C81.5785 100.886 82.8459 101.134 84.0243 101.628C85.2028 102.122 86.2673 102.852 87.1522 103.772V101.558ZM87.1522 107.274C86.7683 106.489 86.2585 105.772 85.643 105.152C84.5877 104.095 83.2419 103.374 81.776 103.081C80.3101 102.788 78.7901 102.936 77.4085 103.506C76.0268 104.076 74.8457 105.042 74.0146 106.283C73.1835 107.523 72.7399 108.982 72.7399 110.475C72.7399 111.967 73.1835 113.426 74.0146 114.667C74.8457 115.907 76.0268 116.874 77.4085 117.444C78.7901 118.014 80.3101 118.162 81.776 117.869C83.2419 117.576 84.5877 116.855 85.643 115.798C86.2618 115.18 86.7721 114.463 87.1522 113.676V107.274Z" fill="white"/>
<path d="M68.1134 93.2681V96.2037H65.8956V93.2964L68.1134 93.2681ZM68.1134 100.901V120.057H65.8956V100.901H68.1134Z" fill="white"/>
<path d="M104.044 120.057H101.21V88.8682H120.15V91.6977H104.044V103.016H116.352V105.845H104.044V120.057Z" fill="white"/>
<path d="M123.366 116.498C124.828 117.594 126.636 118.125 128.459 117.995C130.281 117.865 131.996 117.082 133.286 115.791L134.703 117.241C133.362 118.578 131.654 119.488 129.795 119.856C127.935 120.224 126.009 120.033 124.258 119.309C122.507 118.584 121.011 117.357 119.958 115.783C118.905 114.21 118.343 112.36 118.343 110.468C118.343 108.576 118.905 106.726 119.958 105.152C121.011 103.579 122.507 102.352 124.258 101.627C126.009 100.902 127.935 100.712 129.795 101.08C131.654 101.448 133.362 102.358 134.703 103.695C134.937 103.949 135.171 104.211 135.412 104.487L123.366 116.498ZM132.493 104.473C131.038 103.377 129.236 102.844 127.419 102.97C125.601 103.096 123.891 103.874 122.603 105.16C121.314 106.446 120.535 108.154 120.409 109.969C120.282 111.783 120.817 113.582 121.914 115.034L132.493 104.473Z" fill="white"/>
<path d="M139.344 106.977V120.056H137.219V101.608H139.344V103.454C140.185 102.628 141.182 101.977 142.276 101.539C143.371 101.1 144.542 100.883 145.721 100.9V103.022C144.784 103.007 143.854 103.183 142.988 103.539C142.122 103.896 141.337 104.425 140.684 105.095C140.137 105.645 139.685 106.281 139.344 106.977Z" fill="white"/>
<path d="M149.094 107.402V120.481H146.968V102.033H149.094V103.879C149.935 103.053 150.931 102.402 152.026 101.963C153.121 101.525 154.292 101.308 155.471 101.325V103.447C154.535 103.432 153.606 103.608 152.741 103.964C151.876 104.321 151.093 104.85 150.44 105.52C149.89 106.068 149.435 106.704 149.094 107.402Z" fill="white"/>
<path d="M159.524 116.498C160.985 117.595 162.793 118.127 164.616 117.997C166.44 117.867 168.154 117.084 169.444 115.791L170.896 117.241C169.555 118.578 167.847 119.488 165.988 119.856C164.128 120.224 162.202 120.033 160.451 119.309C158.7 118.584 157.204 117.357 156.151 115.783C155.098 114.21 154.536 112.36 154.536 110.468C154.536 108.576 155.098 106.726 156.151 105.152C157.204 103.579 158.7 102.352 160.451 101.627C162.202 100.902 164.128 100.712 165.988 101.08C167.847 101.448 169.555 102.358 170.896 103.695C171.137 103.949 171.364 104.211 171.605 104.487L159.524 116.498ZM168.65 104.473C167.196 103.377 165.394 102.844 163.576 102.97C161.759 103.096 160.048 103.874 158.76 105.16C157.472 106.446 156.693 108.154 156.566 109.969C156.44 111.783 156.974 113.582 158.071 115.034L168.65 104.473Z" fill="white"/>
<path d="M180.568 106.977V120.057H178.442V101.608H180.568V103.454C181.41 102.63 182.406 101.979 183.501 101.541C184.595 101.103 185.766 100.885 186.945 100.901V103.023C186.009 103.007 185.08 103.183 184.215 103.54C183.35 103.896 182.567 104.426 181.914 105.095C181.368 105.647 180.913 106.282 180.568 106.977Z" fill="white"/>
<path d="M201.938 101.558H203.993V119.37H201.938V117.184C200.604 118.543 198.895 119.475 197.029 119.86C195.162 120.245 193.223 120.066 191.459 119.347C189.694 118.628 188.185 117.4 187.122 115.82C186.059 114.241 185.492 112.381 185.493 110.478C185.493 107.938 186.503 105.502 188.303 103.706C190.102 101.91 192.542 100.9 195.086 100.9C196.364 100.886 197.632 101.134 198.81 101.628C199.989 102.122 201.053 102.852 201.938 103.772V101.558ZM201.938 107.274C201.559 106.486 201.049 105.769 200.429 105.152C199.374 104.095 198.028 103.374 196.562 103.081C195.096 102.788 193.576 102.936 192.194 103.506C190.813 104.076 189.632 105.042 188.8 106.283C187.969 107.523 187.526 108.982 187.526 110.475C187.526 111.967 187.969 113.426 188.8 114.667C189.632 115.907 190.813 116.874 192.194 117.444C193.576 118.014 195.096 118.162 196.562 117.869C198.028 117.576 199.374 116.855 200.429 115.798C201.052 115.184 201.563 114.465 201.938 113.676V107.274Z" fill="white"/>
<path d="M175.36 93.2822V96.2037H173.142V93.2964L175.36 93.2822ZM175.36 100.901V120.057H173.142V100.901H175.36Z" fill="white"/>
<path d="M28.8807 127.201V127.909H22.7304V132.811H28.0517V133.518H22.7304V138.873H21.8802V127.201H28.8807Z" fill="#B28B54"/>
<path d="M34.457 138.859H33.6068V127.201H34.457V138.859Z" fill="#B28B54"/>
<path d="M45.8577 128.623C45.8398 128.664 45.8102 128.7 45.7724 128.725C45.7347 128.75 45.6904 128.764 45.6451 128.764C45.5386 128.743 45.4416 128.689 45.3688 128.609C45.2224 128.486 45.0686 128.373 44.9082 128.269C44.6833 128.134 44.446 128.02 44.1996 127.93C43.8549 127.816 43.4927 127.763 43.1297 127.774C42.7489 127.765 42.3697 127.825 42.0102 127.951C41.7081 128.06 41.431 128.228 41.1954 128.446C40.9827 128.653 40.814 128.9 40.6996 129.174C40.5851 129.447 40.5272 129.741 40.5293 130.038C40.5162 130.383 40.6049 130.725 40.7844 131.021C40.9601 131.282 41.1866 131.506 41.4504 131.679C41.7445 131.865 42.0581 132.02 42.3857 132.138L43.4627 132.499C43.8312 132.617 44.1925 132.751 44.5468 132.902C44.883 133.039 45.1979 133.222 45.4821 133.447C45.7579 133.67 45.9847 133.946 46.1482 134.261C46.3272 134.633 46.4124 135.043 46.3962 135.456C46.4058 135.939 46.3216 136.42 46.1482 136.871C45.9904 137.29 45.7493 137.672 45.4396 137.996C45.1039 138.324 44.7034 138.58 44.2634 138.745C43.759 138.937 43.2228 139.03 42.6833 139.021C41.9967 139.041 41.315 138.9 40.6923 138.611C40.1378 138.339 39.642 137.962 39.2327 137.5L39.4665 137.133C39.4925 137.096 39.5265 137.067 39.5658 137.046C39.6051 137.025 39.6487 137.014 39.6932 137.012C39.7658 137.025 39.8326 137.059 39.8845 137.111L40.168 137.352C40.2938 137.466 40.4263 137.572 40.5647 137.67C40.7337 137.787 40.9114 137.891 41.0962 137.981C41.3242 138.084 41.5614 138.164 41.8047 138.222C42.0996 138.291 42.4017 138.324 42.7046 138.321C43.1275 138.327 43.5479 138.255 43.9446 138.109C44.2885 137.985 44.6024 137.789 44.8657 137.536C45.1153 137.294 45.3109 137.002 45.4396 136.68C45.5712 136.339 45.6385 135.977 45.638 135.612C45.6519 135.255 45.5634 134.901 45.3829 134.593C45.2135 134.324 44.9859 134.097 44.7169 133.928C44.4241 133.741 44.1101 133.589 43.7816 133.475C43.4344 133.355 43.073 133.235 42.7046 133.122C42.3361 133.009 41.996 132.881 41.6205 132.733C41.2844 132.596 40.9694 132.413 40.6852 132.188C40.4057 131.961 40.1785 131.676 40.0192 131.353C39.8389 130.964 39.7539 130.537 39.7712 130.108C39.77 129.72 39.8446 129.336 39.9908 128.976C40.14 128.617 40.3619 128.292 40.6427 128.021C40.9497 127.73 41.3107 127.502 41.7055 127.349C42.159 127.182 42.6391 127.098 43.1226 127.102C43.6796 127.091 44.2334 127.19 44.7523 127.392C45.2399 127.584 45.6834 127.873 46.056 128.241L45.8577 128.623Z" fill="#B28B54"/>
<path d="M51.9583 138.859H51.1081V127.201H51.9583V138.859Z" fill="#B28B54"/>
<path d="M67.8229 133.03C67.8337 133.863 67.697 134.691 67.419 135.477C67.1719 136.176 66.7836 136.816 66.2782 137.359C65.7842 137.879 65.1853 138.289 64.521 138.561C63.0674 139.127 61.454 139.127 60.0004 138.561C59.3352 138.291 58.7359 137.881 58.2432 137.359C57.7357 136.817 57.345 136.176 57.0953 135.477C56.557 133.892 56.557 132.174 57.0953 130.589C57.3493 129.903 57.7398 129.275 58.2432 128.743C58.7375 128.221 59.3362 127.809 60.0004 127.533C61.454 126.967 63.0674 126.967 64.521 127.533C65.1853 127.806 65.7842 128.216 66.2782 128.736C66.7822 129.282 67.1703 129.925 67.419 130.625C67.6933 131.397 67.83 132.211 67.8229 133.03ZM66.9443 133.03C66.9482 132.295 66.8334 131.564 66.6041 130.865C66.4007 130.257 66.0752 129.696 65.6476 129.217C65.2381 128.766 64.7319 128.413 64.1667 128.184C63.5569 127.938 62.9042 127.815 62.2465 127.823C61.5934 127.815 60.9453 127.938 60.3405 128.184C59.7764 128.415 59.2706 128.767 58.8596 129.217C58.4275 129.694 58.0994 130.255 57.896 130.865C57.4425 132.292 57.4425 133.824 57.896 135.251C58.1015 135.862 58.4321 136.423 58.8667 136.899C59.2779 137.346 59.7838 137.697 60.3476 137.925C60.9529 138.169 61.601 138.289 62.2536 138.278C62.9108 138.289 63.5635 138.168 64.1738 137.925C64.7385 137.699 65.2448 137.348 65.6547 136.899C66.0831 136.411 66.4063 135.841 66.6041 135.223C66.8376 134.515 66.9525 133.774 66.9443 133.03Z" fill="#B28B54"/>
<path d="M79.2589 127.201V127.909H75.1564V138.859H74.3132V127.923H70.1894V127.215L79.2589 127.201Z" fill="#B28B54"/>
<path d="M90.9855 127.201V127.909H84.8353V132.627H89.9864V133.334H84.8707V138.194H91.0209V138.901H84.0204V127.201H90.9855Z" fill="#B28B54"/>
<path d="M96.5548 133.588V138.858H95.7187V127.201H98.6946C99.7589 127.124 100.819 127.397 101.713 127.979C102.049 128.255 102.315 128.606 102.489 129.005C102.663 129.403 102.739 129.837 102.712 130.271C102.716 130.687 102.639 131.1 102.485 131.487C102.334 131.853 102.107 132.184 101.819 132.457C101.515 132.749 101.162 132.988 100.778 133.164C100.337 133.347 99.8713 133.464 99.3961 133.511C99.5339 133.598 99.654 133.711 99.7503 133.843L103.768 138.88H103.059C102.981 138.883 102.902 138.866 102.833 138.83C102.757 138.791 102.692 138.735 102.641 138.667L98.9072 133.942C98.8276 133.834 98.7231 133.747 98.6025 133.687C98.4444 133.627 98.2754 133.601 98.1065 133.61L96.5548 133.588ZM96.5548 132.966H98.5883C99.0677 132.975 99.5457 132.911 100.005 132.775C100.385 132.671 100.74 132.49 101.047 132.244C101.324 132.02 101.544 131.734 101.692 131.41C101.846 131.065 101.924 130.691 101.919 130.313C101.946 129.961 101.885 129.608 101.742 129.286C101.598 128.964 101.376 128.682 101.097 128.467C100.39 128.019 99.5581 127.808 98.7229 127.866H96.5973L96.5548 132.966Z" fill="#B28B54"/>
<path d="M118.329 138.859H117.677C117.61 138.863 117.545 138.843 117.493 138.802C117.441 138.757 117.4 138.702 117.372 138.639L115.997 135.251H110.258L108.898 138.646C108.877 138.709 108.838 138.763 108.784 138.802C108.727 138.845 108.657 138.867 108.586 138.866H107.941L112.717 127.208H113.56L118.329 138.859ZM110.535 134.614H115.764L113.369 128.743C113.333 128.651 113.291 128.545 113.255 128.425C113.22 128.304 113.177 128.184 113.142 128.05C113.099 128.184 113.064 128.312 113.022 128.425C112.99 128.535 112.952 128.644 112.908 128.75L110.535 134.614Z" fill="#B28B54"/>
<path d="M123.912 134.169V138.859H123.069V127.201H126.08C127.189 127.123 128.289 127.441 129.184 128.099C129.538 128.423 129.815 128.821 129.995 129.266C130.176 129.71 130.254 130.189 130.225 130.667C130.232 131.154 130.136 131.636 129.942 132.082C129.752 132.506 129.472 132.882 129.12 133.185C128.734 133.501 128.292 133.741 127.816 133.893C127.255 134.073 126.669 134.161 126.08 134.155L123.912 134.169ZM123.912 133.461H126.08C126.561 133.471 127.04 133.399 127.497 133.249C127.878 133.122 128.23 132.92 128.532 132.655C128.812 132.407 129.035 132.1 129.184 131.757C129.337 131.401 129.414 131.018 129.41 130.632C129.434 130.247 129.372 129.861 129.228 129.503C129.085 129.145 128.864 128.822 128.581 128.559C127.87 128.033 126.991 127.781 126.109 127.852H123.94L123.912 133.461Z" fill="#B28B54"/>
<path d="M141.98 127.201V127.909H135.83V132.627H140.953V133.334H135.83V138.194H141.98V138.901H134.98V127.201H141.98Z" fill="#B28B54"/>
<path d="M151.135 138.257C151.653 138.268 152.167 138.169 152.644 137.967C153.074 137.78 153.458 137.503 153.771 137.153C154.086 136.796 154.326 136.38 154.479 135.93C154.646 135.443 154.73 134.931 154.727 134.416V127.201H155.563V134.402C155.569 135.014 155.466 135.622 155.259 136.199C155.069 136.739 154.77 137.236 154.38 137.656C153.985 138.081 153.501 138.415 152.963 138.632C151.78 139.104 150.461 139.104 149.278 138.632C148.74 138.415 148.256 138.081 147.861 137.656C147.473 137.234 147.174 136.738 146.983 136.199C146.775 135.622 146.672 135.014 146.678 134.402V127.187H147.528V134.402C147.522 134.919 147.604 135.433 147.769 135.923C147.922 136.373 148.163 136.789 148.478 137.146C148.787 137.497 149.169 137.777 149.597 137.967C150.084 138.169 150.608 138.268 151.135 138.257Z" fill="#B28B54"/>
<path d="M169.345 127.201V127.909H165.242V138.859H164.385V127.923H160.261V127.215L169.345 127.201Z" fill="#B28B54"/>
<path d="M182.099 138.859H181.447C181.38 138.864 181.314 138.843 181.262 138.802C181.211 138.757 181.17 138.702 181.142 138.639L179.767 135.251H174.028L172.682 138.646C172.659 138.708 172.62 138.762 172.569 138.802C172.511 138.845 172.442 138.867 172.37 138.866H171.725L176.501 127.208H177.344L182.099 138.859ZM174.304 134.614H179.541L177.139 128.743C177.103 128.651 177.061 128.545 177.025 128.425C176.99 128.304 176.947 128.184 176.912 128.05C176.869 128.184 176.834 128.312 176.792 128.425C176.749 128.538 176.714 128.651 176.678 128.75L174.304 134.614Z" fill="#B28B54"/>
<path d="M95.4848 81.582C95.577 80.9241 95.6549 80.2662 95.7328 79.6155C95.9312 78.0026 96.1155 76.3874 96.2855 74.7699C96.491 72.7327 96.6823 70.6883 96.824 68.644C96.9657 66.5997 97.0649 64.7676 97.0578 62.8223C97.0578 62.3625 97.0578 61.9027 97.0578 61.4075C97.0578 61.167 97.0578 60.9194 97.0082 60.7001C97.0082 60.3182 97.0082 60.1838 96.6327 59.9928C95.7564 59.4238 95.0278 58.6553 94.5071 57.7504C93.5116 56.022 92.9409 54.0826 92.8419 52.0913C92.7769 51.1493 92.7769 50.2039 92.8419 49.2618C93.0545 45.4137 92.7569 41.2543 90.3337 38.1135C90.138 37.8823 90.0149 37.5986 89.9796 37.298C89.9444 36.9974 89.9985 36.693 90.1353 36.4229C90.6242 35.7155 91.7649 36.1753 92.3601 36.4229C93.3102 36.8209 94.154 37.4349 94.8244 38.216C95.4948 38.997 95.9733 39.9236 96.2218 40.9218C96.8097 42.9183 97.7954 44.7758 99.1197 46.3828C101.245 48.7879 101.529 52.4875 101.529 52.4875C101.77 52.5653 101.77 52.4026 101.77 52.4026C101.288 49.1911 100.643 47.9107 99.1977 45.9796C97.9094 44.3691 96.9468 42.524 96.3635 40.5469C96.0493 39.3939 95.4386 38.3429 94.5921 37.4981C94.5921 37.0171 95.8816 28.8256 96.0446 27.3826C96.1094 26.6155 96.2713 25.8596 96.5264 25.1331C98.6167 22.2399 101.671 18.3847 101.671 18.3847C101.671 18.3847 103.123 16.97 103.442 18.8657C104.087 21.2779 100.87 26.0952 100.707 26.4135C100.544 26.7318 99.7433 32.3555 99.7433 32.8436C99.7433 33.3316 100.707 32.5182 100.707 32.5182C102.564 30.0633 104.609 27.7552 106.822 25.6141C108.749 25.4514 112.929 24.0084 112.929 24.0084C114.538 24.0084 113.255 26.1305 113.255 26.1305C112.129 27.899 107.948 29.342 107.948 29.342C106.659 30.6295 104.731 35.284 104.731 35.284C106.339 33.8434 108.192 32.7008 110.202 31.9098C112.15 32.4096 114.14 32.734 116.146 32.8789C116.146 32.8789 117.563 33.841 115.827 35.0011C114.092 36.1612 110.039 35.6448 110.039 35.6448C108.948 36.2169 107.967 36.9759 107.141 37.8872C106.985 38.2055 107.467 38.6936 107.467 38.6936C108.43 38.3682 110.202 37.7315 110.839 37.4061C111.042 37.3152 111.262 37.2682 111.484 37.2682C111.706 37.2682 111.926 37.3152 112.129 37.4061C114.701 38.6936 115.027 38.6936 115.827 38.8209C117.117 39.6202 116.309 39.9386 116.309 39.9386C114.538 41.707 111.002 40.4267 111.002 40.4267C108.267 42.5134 108.43 47.0053 108.43 47.0053C111.321 55.6777 105.695 60.8204 105.695 60.8204C104.278 68.6865 106.503 81.6173 106.503 81.6173L95.4848 81.582Z" fill="white"/>
<path d="M87.5278 57.2057C87.7828 55.6495 89.1008 54.171 89.7668 53.5132C88.4489 53.7395 82.4616 55.2109 85.1895 62.9496C85.1895 62.9496 92.3459 60.7709 90.1494 53.8174C89.0246 54.729 88.1272 55.8889 87.5278 57.2057Z" fill="#B28B54"/>
<path d="M85.5225 47.2106C85.5225 47.2106 81.8735 51.3275 78.6992 51.8581C80.9528 50.8368 82.9049 49.2532 84.3676 47.2601C84.566 46.9913 84.7431 46.7649 84.8919 46.5527C73.47 47.9675 71.0609 57.1634 71.0609 57.1634C72.8795 57.7405 74.8146 57.85 76.6869 57.4817C85.1895 54.914 86.0185 48.8093 86.0185 48.8093C86.0185 48.2386 85.8456 47.6814 85.5225 47.2106Z" fill="#B28B54"/>
<path d="M81.165 42.9098C82.5667 42.8444 83.9282 42.4206 85.1187 41.679C85.2887 41.5658 85.4375 41.4809 85.5651 41.4102C78.5717 37.7672 74.5471 43.4686 74.5471 43.4686C81.8664 46.9206 84.4668 43.6526 85.2746 42.1175C84.4031 42.4924 82.5041 43.1998 81.165 42.9098Z" fill="#B28B54"/>
<path d="M83.5528 34.046C80.8018 32.952 77.8149 32.5841 74.8801 32.9779C78.4228 31.4924 84.7998 33.3457 84.7998 33.3457H84.8494C75.5532 25.2958 64.1454 32.7232 64.1454 32.7232C76.6656 40.9288 82.6316 36.3592 84.4385 34.3361L83.5528 34.046Z" fill="#B28B54"/>
<path d="M79.6416 21.929C81.6682 24.1006 84.2096 25.728 87.0318 26.6613C87.5278 26.824 87.9246 26.9655 88.2363 27.0928C84.8353 13.0231 71.0397 15.4211 71.0397 15.4211C75.0501 28.4369 83.2623 28.2954 86.6917 27.588C84.9486 26.7109 81.1012 24.5675 79.6416 21.929Z" fill="#B28B54"/>
<path d="M90.4045 18.3138C91.1128 19.516 92.1179 20.5169 93.3237 21.2211L93.7347 21.4758H93.7914C93.7914 21.4758 94.3086 14.7062 86.0823 13.1782C86.0823 13.1782 85.8697 22.3742 93.0261 21.589C92.3034 21.016 90.7659 19.6437 90.4045 18.3138Z" fill="#B28B54"/>
<path d="M98.0781 16.8003C98.0294 13.912 97.2337 11.0854 95.7683 8.59466C97.7805 10.5541 98.6875 14.6498 99.0134 16.5739C100.02 13.8434 102.443 4.49893 90.9855 0C90.9855 0 87.7332 12.8248 98.0711 17.1044C98.0852 16.9771 98.0781 16.9064 98.0781 16.8003Z" fill="#B28B54"/>
<path d="M107.389 0.480957C107.098 1.76839 98.5742 6.26732 104.051 12.3861C104.051 10.738 104.25 8.19139 105.284 6.6776C104.592 8.6862 104.412 10.8353 104.76 12.9308C105.624 12.2659 111.576 7.34253 107.389 0.480957Z" fill="#B28B54"/>
<path d="M113.822 9.31641C107.197 11.9054 108.055 16.6731 108.303 17.6493C108.614 16.567 109.316 14.5652 110.428 13.6597C109.54 14.8756 108.968 16.2926 108.763 17.7837C115.672 17.0198 113.822 9.31641 113.822 9.31641Z" fill="#B28B54"/>
<path d="M113.929 22.0206C116.478 20.8028 118.673 18.9546 120.305 16.6516C119.42 19.085 116.465 21.4052 114.779 22.5795C125.683 21.5255 128.149 11.7212 128.149 11.7212C114.672 12.8106 113.858 19.8631 113.929 22.0206Z" fill="#B28B54"/>
<path d="M116.203 27.9201C116.452 27.8864 116.703 27.8651 116.954 27.8565C118.532 27.7731 120.062 27.2859 121.397 26.4417C120.157 27.7928 117.209 28.3375 116.628 28.4365C125.329 31.45 127.497 22.636 127.497 22.636C118.733 21.5325 116.586 26.5408 116.203 27.9201Z" fill="#B28B54"/>
<path d="M120.858 33.1266C121.163 33.1761 121.524 33.2539 121.956 33.36C124.776 34.03 127.722 33.9642 130.509 33.169C127.674 34.8597 122.481 34.3928 121.17 34.2442C130.282 42.0749 139.883 33.5369 139.883 33.5369C130.53 25.2039 122.75 31.3511 120.858 33.1266Z" fill="#B28B54"/>
<path d="M126.158 40.95C126.718 41.0066 129.701 41.3744 131.047 42.6689C129.669 41.9049 128.117 41.5101 126.541 41.523C130.87 47.5074 135.915 44.1615 135.915 44.1615C132.549 38.1134 126.364 40.851 126.158 40.95Z" fill="#B28B54"/>
<path d="M118.633 43.2634L118.86 43.6383C120.111 45.6997 121.829 47.4394 123.877 48.7173C120.681 47.5501 117.656 43.327 117.656 43.327C117.653 43.2846 117.653 43.2421 117.656 43.1997H117.549C117.549 43.1997 118.329 57.0078 132.323 56.364C132.323 56.364 132.5 44.3174 118.633 43.2634Z" fill="#B28B54"/>
<path d="M112.582 52.1978C112.736 52.4822 112.869 52.7778 112.979 53.082C113.558 54.5486 114.505 55.842 115.728 56.8382C114.184 56.1308 112.823 53.8884 112.405 53.1244C112.15 55.6568 112.285 62.4689 121.064 62.4689C121.064 62.4689 122.828 53.8247 112.582 52.1978Z" fill="#B28B54"/>
</g>
<defs>
<clipPath id="clip0">
<rect width="204" height="139" fill="white"/>
</clipPath>
</defs>
</svg>
