<svg width="358" height="69" viewBox="0 0 358 69" fill="none" xmlns="http://www.w3.org/2000/svg">
<g clip-path="url(#clip0)">
<path d="M26.4381 69.0001C26.5108 68.4451 26.5834 67.8901 26.647 67.3352C26.8135 65.9704 26.9649 64.6057 27.1011 63.241C27.2782 61.5169 27.4372 59.7883 27.5552 58.0596C27.6687 56.422 27.7596 54.7752 27.755 53.133C27.755 52.7463 27.755 52.3551 27.7232 51.9685C27.7232 51.7637 27.7232 51.5545 27.6869 51.3452C27.6551 51.0223 27.6642 50.8903 27.3645 50.7266C26.615 50.2505 25.9917 49.5996 25.5481 48.8296C24.7156 47.3752 24.235 45.7455 24.1449 44.0713C24.0904 43.2807 24.0904 42.4873 24.1449 41.6967C24.3129 38.4487 24.0677 34.9232 22.0197 32.2984C21.8538 32.1018 21.7494 31.8606 21.7195 31.605C21.6896 31.3493 21.7356 31.0905 21.8516 30.8609C22.2603 30.2877 23.214 30.6516 23.7271 30.8609C24.5281 31.1968 25.2396 31.7155 25.8049 32.3758C26.3703 33.0361 26.7737 33.8196 26.983 34.6639C27.4757 36.3524 28.3053 37.9232 29.4216 39.2811C31.1835 41.3191 31.456 44.4398 31.456 44.4398C31.6603 44.508 31.6604 44.3715 31.6604 44.3715C31.2517 41.6421 30.7113 40.5685 29.4897 38.94C28.43 37.5648 27.6465 35.9967 27.1829 34.3227C26.9199 33.3473 26.4063 32.458 25.6934 31.7434C25.6934 31.334 26.7787 24.4058 26.9149 23.1866C26.9729 22.5388 27.1086 21.9004 27.3191 21.2851C29.081 18.8377 31.6604 15.5806 31.6604 15.5806C31.6604 15.5806 32.8774 14.3569 33.1498 15.9855C33.6948 18.0234 30.9792 22.0994 30.8475 22.3541C30.7158 22.6089 30.0301 27.3581 30.0301 27.7857C30.0301 28.2133 30.8475 27.5128 30.8475 27.5128C32.4106 25.4324 34.1322 23.4765 35.9971 21.6627C37.6228 21.5262 41.1512 20.298 41.1512 20.298C42.5135 20.298 41.4191 22.063 41.4191 22.063C40.47 23.5551 36.9462 24.7924 36.9462 24.7924C35.8608 25.8796 34.2215 29.8191 34.2215 29.8191C35.9835 28.0541 38.8307 26.9669 38.8307 26.9669C40.4684 27.3859 42.14 27.6584 43.8259 27.7811C43.8259 27.7811 45.0474 28.5954 43.5534 29.5462C42.0594 30.4969 38.6718 30.0875 38.6718 30.0875C37.7535 30.5726 36.928 31.2163 36.2332 31.989C36.097 32.2574 36.5057 32.6714 36.5057 32.6714C37.3185 32.3984 38.808 31.8571 39.3529 31.5842C39.5224 31.5061 39.7068 31.4657 39.8933 31.4657C40.0799 31.4657 40.2642 31.5061 40.4337 31.5842C42.6043 32.6714 42.8768 32.6714 43.5534 32.8078C44.6387 33.4857 43.9621 33.7586 43.9621 33.7586C42.4681 35.2507 39.4846 34.1635 39.4846 34.1635C37.2368 35.9376 37.3549 39.727 37.3549 39.727C39.7934 47.0646 35.048 51.4044 35.048 51.4044C33.8264 58.0596 35.7292 68.9956 35.7292 68.9956L26.4381 69.0001Z" fill="white"/>
<path d="M19.7264 48.3837C19.9444 47.0645 21.057 45.8181 21.6155 45.2585C20.5075 45.4542 15.4624 46.696 17.7601 53.2421C17.7601 53.2421 23.7952 51.3998 21.9198 45.5087C20.9778 46.2855 20.2273 47.2693 19.7264 48.3837Z" fill="#B28B54"/>
<path d="M18.0372 39.9317C18.0372 39.9317 14.9856 43.4117 12.2927 43.8575C14.184 42.9927 15.8214 41.6548 17.0472 39.9727C17.2198 39.7407 17.3651 39.5496 17.5013 39.3904C7.87424 40.6095 5.83984 48.352 5.83984 48.352C7.37366 48.8408 9.00568 48.9347 10.5853 48.6249C17.7692 46.4505 18.4504 41.2919 18.4504 41.2919C18.4581 40.8063 18.3136 40.3306 18.0372 39.9317Z" fill="#B28B54"/>
<path d="M14.3679 36.2924C15.5528 36.2384 16.7039 35.8797 17.7102 35.2507C17.86 35.1552 17.9826 35.0824 18.0871 35.0232C12.1837 31.939 8.80511 36.7655 8.80511 36.7655C14.9719 39.686 17.1879 36.9202 17.8464 35.6192C17.0971 35.9376 15.4987 36.5381 14.3679 36.2924Z" fill="#B28B54"/>
<path d="M16.3796 28.7956C14.0625 27.869 11.5462 27.5557 9.07306 27.8858C12.0747 26.6302 17.4105 28.1997 17.4105 28.1997L17.4468 28.2269C9.61345 21.4216 0 27.7084 0 27.7084C10.5535 34.6457 15.5804 30.779 17.1062 29.0731C16.8928 28.9957 16.6521 28.9048 16.3796 28.7956Z" fill="#B28B54"/>
<path d="M13.0828 18.542C14.7918 20.3785 16.9343 21.7551 19.3132 22.5452C19.731 22.6817 20.0625 22.7999 20.3259 22.9091C17.4604 11.0088 5.83075 13.0377 5.83075 13.0377C9.21385 24.0509 16.139 23.919 19.0271 23.3276C17.5558 22.5907 14.3135 20.7802 13.0828 18.542Z" fill="#B28B54"/>
<path d="M22.1559 15.4894C22.7506 16.5119 23.5963 17.3653 24.6126 17.9686C24.7534 18.0505 24.8669 18.1187 24.9623 18.1824H25.0077C25.0077 18.1824 25.4618 12.4552 18.514 11.1587C18.514 11.1587 18.3323 18.9194 24.3674 18.278C23.7544 17.773 22.4601 16.6176 22.1559 15.4894Z" fill="#B28B54"/>
<path d="M28.6087 14.2112C28.5714 11.7719 27.905 9.38366 26.6743 7.27848C28.3726 8.93434 29.1355 12.3962 29.3989 14.0293C30.2572 11.7093 32.3052 3.80301 22.6418 0C22.6418 0 19.9171 10.8449 28.6315 14.466C28.6087 14.3841 28.6087 14.3022 28.6087 14.2112Z" fill="#B28B54"/>
<path d="M36.4739 0.409424C36.2241 1.4921 29.0629 5.3042 33.6584 10.4628C33.6584 9.07537 33.8264 6.91911 34.6938 5.64083C34.1052 7.33743 33.9491 9.15444 34.2397 10.9268C34.9663 10.3718 39.9978 6.20946 36.4739 0.409424Z" fill="#B28B54"/>
<path d="M41.8959 7.87891C36.3286 10.067 37.0325 14.102 37.2368 14.9254C37.5002 14.0156 38.0905 12.3142 39.0532 11.55C38.3084 12.581 37.8267 13.7788 37.65 15.0391C43.4535 14.3931 41.8959 7.87891 41.8959 7.87891Z" fill="#B28B54"/>
<path d="M41.9868 18.6238C44.134 17.5928 45.9807 16.0264 47.3498 14.0748C46.6096 16.14 44.1165 18.1052 42.6861 19.106C51.8772 18.1962 53.9525 9.92603 53.9525 9.92603C42.6134 10.8358 41.9277 16.7996 41.9868 18.6238Z" fill="#B28B54"/>
<path d="M43.8713 23.6142C44.0302 23.6142 44.2346 23.5732 44.5025 23.5596C45.8307 23.4948 47.1196 23.0873 48.2444 22.3768C47.2045 23.5232 44.7205 23.9827 44.2255 24.0645C51.5911 26.5984 53.4212 19.1516 53.4212 19.1516C46.0329 18.1963 44.2255 22.4496 43.8713 23.6142Z" fill="#B28B54"/>
<path d="M47.8266 28.0175C48.0809 28.063 48.3851 28.1267 48.7348 28.2131C51.1124 28.7802 53.5956 28.7254 55.946 28.0539C53.5574 29.4823 49.1798 29.0911 48.0763 28.9637C55.7553 35.5871 63.8475 28.386 63.8475 28.386C55.9778 21.3122 49.4205 26.5163 47.8266 28.0175Z" fill="#B28B54"/>
<path d="M52.295 34.6319C52.7491 34.682 55.2967 34.9959 56.4138 36.0922C55.253 35.446 53.9454 35.1107 52.6174 35.1187C56.2503 40.1772 60.5143 37.3523 60.5143 37.3523C57.6716 32.2346 52.463 34.5728 52.295 34.6319Z" fill="#B28B54"/>
<path d="M45.9511 36.588L46.1418 36.911C47.1964 38.6527 48.6445 40.1221 50.3696 41.2007C47.6722 40.2181 45.1201 36.6517 45.1201 36.6517V36.5425H45.0384C45.0384 36.5425 45.6923 48.2199 57.49 47.674C57.49 47.674 57.6126 37.4841 45.9511 36.588Z" fill="#B28B54"/>
<path d="M40.8697 44.1484C40.9969 44.3893 41.1077 44.6386 41.2012 44.8945C41.6859 46.1395 42.4856 47.2369 43.5216 48.0788C42.2138 47.5056 41.0695 45.5859 40.7153 44.94C40.5018 47.0826 40.6199 52.8417 48.0128 52.8417C47.9946 52.8326 49.4977 45.5223 40.8697 44.1484Z" fill="#B28B54"/>
<path d="M100.253 36.2605L83.9054 13.5789V48.6749H80.041V6.03662H83.2197L101.943 31.9662L120.561 6.03662H123.862V48.6749H119.993V13.4743L103.645 36.2605H100.253Z" fill="white"/>
<path d="M148.997 23.2001H151.822V47.7195H148.997V44.7035C147.784 45.9746 146.324 46.9829 144.706 47.666C143.088 48.3491 141.348 48.6924 139.593 48.6748C136.1 48.6748 132.75 47.2849 130.281 44.8109C127.811 42.3369 126.423 38.9814 126.423 35.4826C126.423 31.9838 127.811 28.6283 130.281 26.1543C132.75 23.6802 136.1 22.2903 139.593 22.2903C141.347 22.271 143.087 22.6122 144.704 23.2929C146.322 23.9736 147.783 24.9794 148.997 26.248V23.2001ZM148.997 31.0745C148.473 29.9885 147.775 28.9958 146.931 28.1359C145.976 27.1605 144.833 26.3895 143.571 25.8696C142.31 25.3496 140.956 25.0914 139.593 25.1107C138.233 25.1101 136.887 25.3781 135.631 25.8992C134.375 26.4203 133.234 27.1844 132.273 28.1478C131.313 29.1112 130.551 30.2548 130.032 31.5134C129.513 32.772 129.246 34.1208 129.248 35.4826C129.249 37.5346 129.858 39.5402 130.997 41.2453C132.137 42.9505 133.756 44.2786 135.649 45.0614C137.543 45.8442 139.625 46.0465 141.634 45.6426C143.642 45.2388 145.486 44.247 146.931 42.7929C147.78 41.951 148.479 40.9693 148.997 39.8906V31.0745Z" fill="white"/>
<path d="M158.247 30.647V48.6749H155.305V23.2593H158.229V25.8023C159.39 24.662 160.765 23.7643 162.275 23.1614C163.785 22.5585 165.4 22.2624 167.025 22.2904V25.2245C165.741 25.2022 164.466 25.4437 163.279 25.9343C162.092 26.4249 161.018 27.154 160.123 28.0768C159.363 28.8266 158.73 29.6946 158.247 30.647Z" fill="white"/>
<path d="M198.899 23.2H201.724V47.7194H198.899V44.7034C197.684 45.9716 196.223 46.9771 194.606 47.6578C192.988 48.3384 191.249 48.6799 189.494 48.6611C186.002 48.6611 182.652 47.2712 180.182 44.7971C177.713 42.3231 176.325 38.9676 176.325 35.4688C176.325 31.97 177.713 28.6145 180.182 26.1405C182.652 23.6665 186.002 22.2766 189.494 22.2766C191.249 22.2583 192.989 22.6005 194.606 23.282C196.224 23.9634 197.685 24.9698 198.899 26.2388V23.2ZM198.899 31.0744C198.375 29.9884 197.677 28.9957 196.833 28.1357C195.876 27.1629 194.733 26.3944 193.472 25.8768C192.21 25.3592 190.857 25.1032 189.494 25.1243C188.135 25.1225 186.789 25.3891 185.533 25.9088C184.277 26.4286 183.136 27.1913 182.174 28.1533C181.213 29.1153 180.45 30.2578 179.929 31.5154C179.409 32.773 179.141 34.1211 179.141 35.4825C179.142 37.5345 179.75 39.54 180.89 41.2452C182.029 42.9504 183.648 44.2785 185.542 45.0613C187.435 45.8441 189.518 46.0464 191.527 45.6425C193.535 45.2387 195.378 44.2469 196.824 42.7928C197.677 41.9489 198.379 40.964 198.899 39.8814V31.0744Z" fill="white"/>
<path d="M172.82 12.2505V16.2491H169.782V12.2505H172.82ZM172.82 22.2584V48.6429H169.782V22.2902L172.82 22.2584Z" fill="white"/>
<path d="M221.754 48.6749H217.885V6.03662H243.674V9.90786H221.754V25.411H238.52V29.2868H221.754V48.6749Z" fill="white"/>
<path d="M248.124 43.7619C250.126 45.262 252.601 45.9889 255.095 45.8092C257.589 45.6296 259.935 44.5555 261.702 42.7839L263.696 44.7809C261.856 46.6278 259.512 47.8869 256.958 48.3991C254.404 48.9112 251.756 48.6534 249.349 47.6582C246.942 46.663 244.883 44.9751 243.433 42.8079C241.983 40.6407 241.207 38.0915 241.204 35.4827C241.198 32.8696 241.966 30.3135 243.412 28.1386C244.858 25.9638 246.917 24.2681 249.326 23.2667C251.735 22.2653 254.387 22.0032 256.946 22.5138C259.504 23.0243 261.853 24.2845 263.696 26.1344C264.023 26.4892 264.336 26.8531 264.636 27.2307L248.124 43.7619ZM260.658 27.2216C259.122 26.048 257.29 25.3281 255.367 25.1431C253.445 24.9581 251.509 25.3155 249.778 26.1749C248.048 27.0343 246.592 28.3614 245.575 30.0062C244.558 31.651 244.021 33.5479 244.024 35.4827C243.987 37.756 244.729 39.9732 246.126 41.7649L260.658 27.2216Z" fill="white"/>
<path d="M269.74 30.647V48.6749H266.788V23.2594H269.74V25.8023C270.895 24.6657 272.263 23.7701 273.766 23.1672C275.269 22.5644 276.876 22.2664 278.495 22.2904V25.2245C277.21 25.2021 275.934 25.4436 274.747 25.9342C273.559 26.4247 272.484 27.1539 271.588 28.0768C270.838 28.8285 270.214 29.6964 269.74 30.647Z" fill="white"/>
<path d="M282.845 30.6469V48.6748H279.921V23.2592H282.845V25.8021C284.003 24.6628 285.375 23.7656 286.882 23.1627C288.389 22.5597 290.001 22.2632 291.623 22.2903V25.2244C290.341 25.202 289.067 25.4427 287.881 25.9316C286.695 26.4206 285.621 27.1475 284.725 28.0676C283.963 28.8196 283.328 29.6908 282.845 30.6469Z" fill="white"/>
<path d="M297.281 43.7619C299.284 45.2623 301.76 45.9893 304.255 45.8097C306.749 45.63 309.096 44.5558 310.864 42.7838L312.88 44.7809C311.042 46.6372 308.695 47.9045 306.137 48.4221C303.578 48.9396 300.924 48.684 298.511 47.6877C296.098 46.6913 294.035 44.9993 292.584 42.8262C291.133 40.6531 290.359 38.0971 290.361 35.4826C290.36 32.8689 291.134 30.3138 292.583 28.1402C294.031 25.9666 296.091 24.272 298.501 23.2705C300.911 22.2691 303.563 22.0058 306.122 22.5139C308.682 23.022 311.033 24.2787 312.88 26.1252C313.207 26.48 313.52 26.844 313.82 27.2215L297.281 43.7619ZM309.81 27.2215C308.274 26.0511 306.442 25.3338 304.521 25.1504C302.6 24.9671 300.666 25.325 298.937 26.1839C297.208 27.0428 295.753 28.3685 294.736 30.0115C293.719 31.6544 293.18 33.5494 293.181 35.4826C293.145 37.7592 293.889 39.9793 295.288 41.774L309.81 27.2215Z" fill="white"/>
<path d="M318.901 12.2551V16.2492H315.863V12.2551H318.901ZM318.901 22.263V48.6475H315.863V22.2903L318.901 22.263Z" fill="white"/>
<path d="M325.332 30.6469V48.6748H322.416V23.2593H325.345V25.8022C326.501 24.6645 327.871 23.7682 329.376 23.1653C330.88 22.5625 332.489 22.265 334.109 22.2903V25.2244C332.825 25.202 331.549 25.4435 330.361 25.934C329.173 26.4246 328.098 27.1538 327.202 28.0767C326.444 28.8267 325.813 29.6947 325.332 30.6469Z" fill="white"/>
<path d="M355.175 23.2001H358V47.7195H355.175V44.7035C353.962 45.9718 352.502 46.9773 350.885 47.658C349.268 48.3388 347.529 48.6801 345.775 48.6611C342.283 48.6611 338.933 47.2712 336.463 44.7972C333.994 42.3232 332.606 38.9677 332.606 35.4689C332.606 31.9701 333.994 28.6146 336.463 26.1406C338.933 23.6665 342.283 22.2766 345.775 22.2766C347.529 22.2576 349.268 22.599 350.885 23.2797C352.502 23.9604 353.962 24.966 355.175 26.2343V23.2001ZM355.175 31.0745C354.652 29.9884 353.954 28.9957 353.109 28.1358C352.154 27.1631 351.011 26.3947 349.75 25.877C348.49 25.3594 347.138 25.1033 345.775 25.1243C344.417 25.1231 343.071 25.3902 341.816 25.9102C340.56 26.4302 339.419 27.193 338.458 28.155C337.497 29.1169 336.734 30.2592 336.214 31.5165C335.694 32.7738 335.426 34.1215 335.426 35.4825C335.427 37.5345 336.036 39.5401 337.175 41.2453C338.315 42.9505 339.934 44.2785 341.827 45.0613C343.721 45.8441 345.804 46.0464 347.812 45.6426C349.82 45.2388 351.664 44.247 353.109 42.7929C353.959 41.9509 354.658 40.9693 355.175 39.8906V31.0745Z" fill="white"/>
<path d="M85.9307 54.9934V55.5848H80.7494V59.7335H85.2359V60.3249H80.7494V64.8739H80.0364V54.9934H85.9307Z" fill="#B28B54"/>
<path d="M90.6353 64.8558H89.9132V54.9934H90.6262L90.6353 64.8558Z" fill="#B28B54"/>
<path d="M100.244 56.1945C100.229 56.23 100.204 56.2601 100.171 56.2812C100.139 56.3022 100.101 56.3132 100.063 56.3128C99.9728 56.2959 99.8913 56.2495 99.8309 56.1808C99.7084 56.0767 99.5778 55.9824 99.4404 55.8988C99.2499 55.7777 99.0456 55.68 98.8319 55.6076C98.5388 55.5125 98.2317 55.4679 97.9237 55.4757C97.602 55.4689 97.2819 55.5213 96.9791 55.6304C96.7241 55.7209 96.4907 55.8634 96.2934 56.0489C96.1127 56.2202 95.9703 56.428 95.8756 56.6585C95.7796 56.8907 95.7302 57.1395 95.7303 57.3909C95.7193 57.6818 95.7935 57.9696 95.9438 58.2188C96.0911 58.4421 96.2828 58.6326 96.5069 58.7783C96.7532 58.9395 97.0186 59.0694 97.297 59.165C97.5922 59.2696 97.8919 59.3743 98.2052 59.4743C98.5186 59.5744 98.8183 59.6881 99.1134 59.811C99.3961 59.9262 99.6619 60.0792 99.9036 60.2659C100.137 60.4526 100.329 60.6867 100.467 60.9528C100.618 61.2689 100.691 61.6168 100.68 61.9672C100.682 62.3668 100.609 62.7632 100.467 63.1363C100.33 63.4931 100.119 63.817 99.8491 64.0871C99.568 64.3653 99.2325 64.5821 98.8637 64.7239C98.4371 64.8845 97.9842 64.9632 97.5286 64.9559C96.9495 64.9714 96.3746 64.8531 95.8484 64.6102C95.3798 64.3815 94.9614 64.0613 94.6178 63.6686L94.813 63.3592C94.8354 63.3279 94.8646 63.3022 94.8985 63.2841C94.9323 63.2659 94.9699 63.2558 95.0083 63.2546C95.0691 63.2657 95.1248 63.296 95.1672 63.341L95.4079 63.5457C95.4987 63.6276 95.6123 63.7141 95.7394 63.8096C95.8813 63.913 96.0335 64.0014 96.1935 64.0734C96.3835 64.1611 96.5811 64.2311 96.7839 64.2827C97.0325 64.3401 97.2871 64.3676 97.5422 64.3646C97.8998 64.3703 98.2553 64.3101 98.5912 64.1872C98.8797 64.0781 99.1437 63.9126 99.3677 63.7004C99.5798 63.4963 99.7442 63.2478 99.8491 62.9726C99.9647 62.6834 100.022 62.3742 100.017 62.0627C100.029 61.7616 99.9551 61.4634 99.8037 61.203C99.6621 60.9754 99.4712 60.7826 99.2451 60.6389C98.9976 60.481 98.7324 60.3528 98.455 60.2568L97.5468 59.9565C97.238 59.861 96.9337 59.7518 96.6385 59.629C96.3541 59.5175 96.0878 59.3642 95.8484 59.1741C95.6144 58.9814 95.424 58.7411 95.2898 58.469C95.1354 58.1394 95.0622 57.7775 95.0764 57.4136C95.0763 57.0861 95.1395 56.7617 95.2626 56.4583C95.3891 56.1526 95.576 55.8756 95.8121 55.644C96.0764 55.4 96.3846 55.2086 96.7203 55.08C97.1076 54.9339 97.519 54.8629 97.9328 54.8707C98.3979 54.8654 98.8599 54.9472 99.2951 55.1118C99.7123 55.283 100.091 55.5367 100.408 55.8578L100.244 56.1945Z" fill="#B28B54"/>
<path d="M105.385 64.8558H104.672V54.9934H105.385V64.8558Z" fill="#B28B54"/>
<path d="M118.758 59.9202C118.768 60.6264 118.652 61.3287 118.418 61.9946C118.208 62.5842 117.881 63.1245 117.455 63.5822C117.04 64.0242 116.535 64.3717 115.974 64.6012C115.367 64.8453 114.717 64.9674 114.063 64.9606C113.412 64.9656 112.767 64.8419 112.164 64.5966C111.603 64.3672 111.096 64.0197 110.68 63.5776C110.257 63.1176 109.93 62.5779 109.717 61.99C109.257 60.6487 109.257 59.1918 109.717 57.8504C109.93 57.2625 110.257 56.7228 110.68 56.2628C111.096 55.8194 111.602 55.4704 112.164 55.2392C112.767 54.9934 113.412 54.8712 114.063 54.8799C114.717 54.8707 115.367 54.9929 115.974 55.2392C116.536 55.4671 117.041 55.8148 117.455 56.2582C117.88 56.7184 118.207 57.26 118.418 57.8504C118.652 58.5147 118.768 59.2155 118.758 59.9202ZM118.018 59.9202C118.026 59.2918 117.931 58.6662 117.736 58.0688C117.566 57.5535 117.292 57.0784 116.933 56.6722C116.585 56.2933 116.159 55.9952 115.684 55.7988C115.169 55.5915 114.618 55.488 114.063 55.494C113.513 55.4883 112.969 55.5919 112.46 55.7988C111.984 55.9963 111.557 56.2942 111.206 56.6722C110.842 57.0767 110.566 57.5522 110.393 58.0688C110.006 59.2741 110.006 60.5709 110.393 61.7762C110.567 62.291 110.843 62.7647 111.206 63.1682C111.553 63.5491 111.982 63.8462 112.46 64.0371C112.969 64.2424 113.514 64.3444 114.063 64.3373C114.617 64.3449 115.168 64.2429 115.684 64.0371C116.161 63.8473 116.588 63.55 116.933 63.1682C117.291 62.763 117.565 62.2896 117.736 61.7762C117.932 61.1773 118.027 60.5502 118.018 59.9202Z" fill="#B28B54"/>
<path d="M128.394 54.9934V55.5984H124.939V64.8558H124.23V55.5984H120.752V54.9934H128.394Z" fill="#B28B54"/>
<path d="M138.28 54.9934V55.5848H133.099V59.5925H137.413V60.1702H133.099V64.2644H138.28V64.8603H132.377V54.9934H138.28Z" fill="#B28B54"/>
<path d="M142.98 60.3931V64.8558H142.267V54.9934H144.778C145.918 54.9934 146.763 55.2118 147.326 55.653C147.611 55.8834 147.837 56.1796 147.983 56.5163C148.13 56.853 148.192 57.2201 148.166 57.5864C148.171 57.9402 148.105 58.2915 147.971 58.619C147.844 58.9281 147.654 59.207 147.412 59.4378C147.155 59.6815 146.857 59.8772 146.531 60.0156C146.163 60.1736 145.772 60.2734 145.373 60.3113C145.488 60.3852 145.588 60.4792 145.669 60.5887L149.056 64.8558H148.439C148.373 64.8572 148.307 64.8432 148.248 64.8148C148.188 64.7781 148.135 64.7303 148.093 64.6738L144.942 60.6752C144.876 60.5827 144.789 60.5077 144.688 60.4568C144.553 60.4077 144.409 60.386 144.265 60.3931H142.98ZM142.98 59.8654H144.688C145.085 59.87 145.482 59.8163 145.864 59.7062C146.183 59.6135 146.481 59.4589 146.74 59.2513C146.973 59.0629 147.16 58.8231 147.285 58.5508C147.409 58.2636 147.472 57.9538 147.471 57.641C147.493 57.3446 147.442 57.0474 147.322 56.7754C147.203 56.5034 147.018 56.2648 146.786 56.0806C146.187 55.7028 145.484 55.5245 144.778 55.5711H142.962L142.98 59.8654Z" fill="#B28B54"/>
<path d="M161.34 64.8558H160.79C160.731 64.858 160.673 64.8386 160.627 64.8012C160.583 64.7653 160.55 64.7181 160.531 64.6647L159.392 61.8033H154.537L153.379 64.6647C153.361 64.7172 153.328 64.7632 153.284 64.7966C153.237 64.8367 153.177 64.8578 153.116 64.8558H152.58L156.603 54.9934H157.316L161.34 64.8558ZM154.751 61.2711H159.16L157.148 56.2671C157.117 56.1898 157.085 56.0988 157.053 55.9987C157.021 55.8987 156.989 55.794 156.958 55.6803L156.858 55.9987C156.826 56.0988 156.794 56.1898 156.762 56.2762L154.751 61.2711Z" fill="#B28B54"/>
<path d="M166.035 60.8845V64.8558H165.327V54.9934H167.865C168.798 54.9256 169.725 55.1951 170.476 55.7531C170.775 56.0266 171.009 56.3633 171.161 56.7386C171.313 57.1139 171.381 57.5185 171.357 57.923C171.362 58.3314 171.28 58.736 171.117 59.1103C170.958 59.4698 170.723 59.7899 170.426 60.0474C170.101 60.3193 169.726 60.5263 169.323 60.657C168.852 60.8104 168.36 60.8857 167.865 60.8799L166.035 60.8845ZM166.035 60.3113H167.852C168.248 60.3184 168.643 60.2569 169.019 60.1293C169.34 60.0221 169.636 59.852 169.891 59.6289C170.127 59.4191 170.315 59.1597 170.44 58.8692C170.57 58.5694 170.637 58.2456 170.635 57.9185C170.655 57.593 170.602 57.2671 170.482 56.9643C170.361 56.6615 170.174 56.3893 169.936 56.1671C169.338 55.7162 168.598 55.498 167.852 55.553H166.035V60.3113Z" fill="#B28B54"/>
<path d="M181.266 54.9934V55.5848H176.085V59.5925H180.394V60.1702H176.085V64.2644H181.266V64.8603H175.363V54.9934H181.266Z" fill="#B28B54"/>
<path d="M188.981 64.3463C189.417 64.3526 189.85 64.269 190.253 64.1006C190.614 63.9404 190.937 63.7065 191.202 63.4137C191.466 63.1102 191.668 62.7579 191.797 62.3765C191.936 61.9633 192.005 61.5297 192.001 61.0937V54.9934H192.71V61.0937C192.714 61.6115 192.626 62.126 192.451 62.6131C192.29 63.0702 192.038 63.4897 191.711 63.8459C191.381 64.2022 190.981 64.4844 190.534 64.6738C189.538 65.0741 188.425 65.0741 187.428 64.6738C186.982 64.4844 186.581 64.2022 186.252 63.8459C185.924 63.4897 185.672 63.0702 185.512 62.6131C185.336 62.126 185.249 61.6115 185.253 61.0937V54.9934H185.971V61.0846C185.967 61.5221 186.036 61.9571 186.175 62.372C186.301 62.7521 186.502 63.1032 186.765 63.4046C187.028 63.6996 187.35 63.9353 187.71 64.0961C188.112 64.266 188.545 64.3512 188.981 64.3463Z" fill="#B28B54"/>
<path d="M204.348 54.9934V55.5984H200.888V64.8558H200.18V55.5984H196.701V54.9934H204.348Z" fill="#B28B54"/>
<path d="M215.102 64.8557H214.552C214.494 64.8586 214.437 64.839 214.393 64.8011C214.347 64.767 214.312 64.7193 214.293 64.6647L213.131 61.8033H208.299L207.141 64.6647C207.123 64.7172 207.09 64.7632 207.046 64.7966C206.999 64.8367 206.939 64.8578 206.878 64.8557H206.337L210.365 54.9934H211.074L215.102 64.8557ZM208.512 61.2711H212.922L210.915 56.2671C210.876 56.1799 210.842 56.0903 210.815 55.9987C210.783 55.8987 210.751 55.794 210.719 55.6803C210.688 55.794 210.651 55.8987 210.619 55.9987C210.588 56.0988 210.556 56.1898 210.524 56.2762L208.512 61.2711Z" fill="#B28B54"/>
</g>
<defs>
<clipPath id="clip0">
<rect width="358" height="69" fill="white"/>
</clipPath>
</defs>
</svg>
