<svg width="358" height="69" viewBox="0 0 358 69" fill="none" xmlns="http://www.w3.org/2000/svg">
<g clip-path="url(#clip0)">
<path d="M26.4382 69C26.5108 68.4451 26.5835 67.8901 26.6471 67.3351C26.8136 65.9704 26.9649 64.6057 27.1012 63.2409C27.2783 61.5169 27.4372 59.7882 27.5553 58.0596C27.6688 56.4219 27.7596 54.7752 27.7551 53.133C27.7551 52.7463 27.7551 52.3551 27.7233 51.9684C27.7233 51.7637 27.7233 51.5544 27.687 51.3452C27.6552 51.0222 27.6643 50.8903 27.3646 50.7265C26.615 50.2504 25.9918 49.5995 25.5481 48.8295C24.7156 47.3751 24.235 45.7454 24.1449 44.0712C24.0904 43.2806 24.0904 42.4872 24.1449 41.6966C24.313 38.4486 24.0677 34.9231 22.0197 32.2983C21.8538 32.1017 21.7494 31.8605 21.7196 31.6049C21.6897 31.3492 21.7356 31.0904 21.8517 30.8608C22.2604 30.2876 23.214 30.6515 23.7272 30.8608C24.5282 31.1967 25.2397 31.7155 25.805 32.3758C26.3703 33.0361 26.7737 33.8196 26.9831 34.6638C27.4758 36.3523 28.3054 37.9231 29.4217 39.2811C31.1836 41.3191 31.4561 44.4397 31.4561 44.4397C31.6604 44.5079 31.6604 44.3715 31.6604 44.3715C31.2517 41.642 30.7113 40.5685 29.4898 38.9399C28.43 37.5647 27.6466 35.9967 27.1829 34.3226C26.9199 33.3473 26.4064 32.4579 25.6934 31.7433C25.6934 31.3339 26.7788 24.4057 26.915 23.1865C26.973 22.5388 27.1087 21.9003 27.3191 21.285C29.0811 18.8377 31.6604 15.5805 31.6604 15.5805C31.6604 15.5805 32.8774 14.3568 33.1499 15.9854C33.6948 18.0234 30.9793 22.0993 30.8476 22.3541C30.7159 22.6088 30.0302 27.358 30.0302 27.7856C30.0302 28.2132 30.8476 27.5127 30.8476 27.5127C32.4106 25.4323 34.1323 23.4764 35.9971 21.6626C37.6228 21.5261 41.1513 20.2979 41.1513 20.2979C42.5136 20.2979 41.4192 22.0629 41.4192 22.0629C40.4701 23.555 36.9462 24.7924 36.9462 24.7924C35.8609 25.8796 34.2216 29.8191 34.2216 29.8191C35.9835 28.054 38.8308 26.9668 38.8308 26.9668C40.4685 27.3858 42.1401 27.6583 43.8259 27.7811C43.8259 27.7811 45.0475 28.5954 43.5535 29.5461C42.0595 30.4969 38.6718 30.0875 38.6718 30.0875C37.7536 30.5726 36.9281 31.2163 36.2333 31.989C36.097 32.2574 36.5057 32.6713 36.5057 32.6713C37.3186 32.3984 38.8081 31.857 39.353 31.5841C39.5225 31.5061 39.7068 31.4657 39.8934 31.4657C40.0799 31.4657 40.2643 31.5061 40.4338 31.5841C42.6044 32.6713 42.8769 32.6713 43.5535 32.8078C44.6388 33.4856 43.9622 33.7585 43.9622 33.7585C42.4682 35.2506 39.4847 34.1634 39.4847 34.1634C37.2368 35.9375 37.3549 39.7269 37.3549 39.7269C39.7935 47.0645 35.0481 51.4043 35.0481 51.4043C33.8265 58.0596 35.7292 68.9955 35.7292 68.9955L26.4382 69Z" fill="white"/>
<path d="M19.7264 48.3837C19.9444 47.0645 21.057 45.8181 21.6155 45.2585C20.5075 45.4542 15.4624 46.696 17.7601 53.2421C17.7601 53.2421 23.7952 51.3998 21.9198 45.5087C20.9778 46.2855 20.2273 47.2693 19.7264 48.3837V48.3837Z" fill="#076653"/>
<path d="M18.0372 39.9316C18.0372 39.9316 14.9856 43.4116 12.2927 43.8574C14.184 42.9926 15.8214 41.6547 17.0472 39.9725C17.2198 39.7405 17.3651 39.5495 17.5013 39.3903C7.87424 40.6094 5.83984 48.3519 5.83984 48.3519C7.37366 48.8407 9.00568 48.9346 10.5853 48.6248C17.7692 46.4504 18.4504 41.2918 18.4504 41.2918C18.4581 40.8062 18.3136 40.3305 18.0372 39.9316V39.9316Z" fill="#076653"/>
<path d="M14.368 36.2923C15.5529 36.2383 16.7039 35.8795 17.7102 35.2506C17.8601 35.155 17.9827 35.0823 18.0871 35.0231C12.1837 31.9389 8.80518 36.7654 8.80518 36.7654C14.972 39.6859 17.188 36.9201 17.8464 35.619C17.0972 35.9375 15.4987 36.5379 14.368 36.2923Z" fill="#076653"/>
<path d="M16.3796 28.7955C14.0625 27.8689 11.5462 27.5555 9.07306 27.8856C12.0747 26.6301 17.4105 28.1995 17.4105 28.1995L17.4468 28.2268C9.61345 21.4214 0 27.7082 0 27.7082C10.5535 34.6455 15.5804 30.7788 17.1062 29.0729C16.8928 28.9956 16.6521 28.9046 16.3796 28.7955Z" fill="#076653"/>
<path d="M13.0829 18.542C14.7919 20.3784 16.9343 21.755 19.3133 22.5451C19.731 22.6816 20.0625 22.7999 20.3259 22.9091C17.4605 11.0087 5.83081 13.0376 5.83081 13.0376C9.21391 24.0509 16.139 23.9189 19.0272 23.3276C17.5559 22.5906 14.3135 20.7801 13.0829 18.542Z" fill="#076653"/>
<path d="M22.156 15.4895C22.7507 16.5121 23.5963 17.3655 24.6127 17.9687C24.7534 18.0506 24.867 18.1189 24.9623 18.1825H25.0077C25.0077 18.1825 25.4619 12.4553 18.514 11.1588C18.514 11.1588 18.3324 18.9195 24.3675 18.2781C23.7544 17.7731 22.4602 16.6177 22.156 15.4895Z" fill="#076653"/>
<path d="M28.6088 14.2112C28.5715 11.7719 27.9051 9.38366 26.6743 7.27848C28.3727 8.93434 29.1356 12.3962 29.399 14.0293C30.2572 11.7093 32.3052 3.80301 22.6418 0C22.6418 0 19.9172 10.8449 28.6315 14.466C28.6088 14.3841 28.6088 14.3022 28.6088 14.2112Z" fill="#076653"/>
<path d="M36.4739 0.409363C36.2241 1.49204 29.0629 5.30414 33.6584 10.4628C33.6584 9.0753 33.8264 6.91905 34.6938 5.64077C34.1052 7.33737 33.9491 9.15438 34.2397 10.9268C34.9663 10.3718 39.9978 6.2094 36.4739 0.409363Z" fill="#076653"/>
<path d="M41.8958 7.87903C36.3285 10.0671 37.0323 14.1021 37.2367 14.9255C37.5001 14.0157 38.0904 12.3144 39.0531 11.5501C38.3083 12.5811 37.8266 13.779 37.6499 15.0392C43.4534 14.3933 41.8958 7.87903 41.8958 7.87903Z" fill="#076653"/>
<path d="M41.9867 18.6239C44.1339 17.5929 45.9806 16.0264 47.3497 14.0748C46.6095 16.1401 44.1165 18.1053 42.686 19.1061C51.8772 18.1963 53.9524 9.92609 53.9524 9.92609C42.6134 10.8359 41.9277 16.7997 41.9867 18.6239Z" fill="#076653"/>
<path d="M43.8713 23.6141C44.0303 23.6141 44.2346 23.5731 44.5025 23.5595C45.8307 23.4946 47.1196 23.0872 48.2444 22.3767C47.2045 23.5231 44.7205 23.9825 44.2255 24.0644C51.5912 26.5982 53.4212 19.1514 53.4212 19.1514C46.0329 18.1961 44.2255 22.4495 43.8713 23.6141Z" fill="#076653"/>
<path d="M47.8267 28.0176C48.081 28.0631 48.3852 28.1268 48.7349 28.2132C51.1125 28.7803 53.5957 28.7255 55.9461 28.054C53.5575 29.4824 49.1799 29.0912 48.0764 28.9638C55.7554 35.5872 63.8476 28.3861 63.8476 28.3861C55.9779 21.3123 49.4206 26.5164 47.8267 28.0176Z" fill="#076653"/>
<path d="M52.2949 34.6319C52.749 34.682 55.2966 34.9959 56.4137 36.0922C55.2529 35.446 53.9453 35.1107 52.6173 35.1187C56.2502 40.1772 60.5143 37.3523 60.5143 37.3523C57.6715 32.2346 52.4629 34.5728 52.2949 34.6319Z" fill="#076653"/>
<path d="M45.9511 36.5881L46.1418 36.9111C47.1964 38.6528 48.6445 40.1222 50.3695 41.2008C47.6722 40.2182 45.1201 36.6518 45.1201 36.6518V36.5426H45.0383C45.0383 36.5426 45.6922 48.22 57.49 47.6741C57.49 47.6741 57.6126 37.4843 45.9511 36.5881Z" fill="#076653"/>
<path d="M40.8697 44.1485C40.9969 44.3894 41.1077 44.6386 41.2012 44.8945C41.686 46.1396 42.4856 47.237 43.5217 48.0789C42.2138 47.5057 41.0695 45.586 40.7153 44.94C40.5019 47.0826 40.6199 52.8417 48.0128 52.8417C47.9946 52.8326 49.4977 45.5223 40.8697 44.1485Z" fill="#076653"/>
<path d="M100.253 36.2605L83.9055 13.5789V48.6748H80.041V6.03656H83.2198L101.943 31.9661L120.561 6.03656H123.862V48.6748H119.993V13.4743L103.646 36.2605H100.253Z" fill="white"/>
<path d="M148.997 23.2001H151.822V47.7195H148.997V44.7035C147.784 45.9746 146.323 46.9829 144.706 47.666C143.088 48.3491 141.348 48.6924 139.592 48.6748C136.1 48.6748 132.75 47.2849 130.28 44.8109C127.811 42.3369 126.423 38.9814 126.423 35.4826C126.423 31.9838 127.811 28.6283 130.28 26.1543C132.75 23.6802 136.1 22.2903 139.592 22.2903C141.347 22.271 143.087 22.6122 144.704 23.2929C146.322 23.9736 147.783 24.9794 148.997 26.248V23.2001ZM148.997 31.0745C148.473 29.9885 147.775 28.9958 146.931 28.1359C145.976 27.1605 144.833 26.3895 143.571 25.8696C142.31 25.3496 140.956 25.0914 139.592 25.1107C138.233 25.1101 136.887 25.3781 135.631 25.8992C134.375 26.4203 133.234 27.1844 132.273 28.1478C131.312 29.1112 130.551 30.2548 130.032 31.5134C129.512 32.772 129.246 34.1208 129.248 35.4826C129.249 37.5346 129.858 39.5402 130.997 41.2453C132.137 42.9505 133.756 44.2786 135.649 45.0614C137.543 45.8442 139.625 46.0465 141.634 45.6426C143.642 45.2388 145.486 44.247 146.931 42.7929C147.78 41.951 148.479 40.9693 148.997 39.8906V31.0745Z" fill="white"/>
<path d="M158.247 30.647V48.6749H155.305V23.2593H158.229V25.8023C159.39 24.662 160.765 23.7643 162.275 23.1614C163.785 22.5585 165.4 22.2624 167.025 22.2904V25.2245C165.741 25.2022 164.466 25.4437 163.279 25.9343C162.092 26.4249 161.018 27.154 160.123 28.0768C159.363 28.8266 158.73 29.6946 158.247 30.647V30.647Z" fill="white"/>
<path d="M198.899 23.2002H201.724V47.7195H198.899V44.7035C197.685 45.9717 196.223 46.9772 194.606 47.6579C192.988 48.3386 191.249 48.68 189.495 48.6612C186.002 48.6612 182.652 47.2713 180.183 44.7973C177.713 42.3232 176.325 38.9677 176.325 35.4689C176.325 31.9701 177.713 28.6146 180.183 26.1406C182.652 23.6666 186.002 22.2767 189.495 22.2767C191.249 22.2585 192.989 22.6006 194.606 23.2821C196.224 23.9636 197.685 24.9699 198.899 26.2389V23.2002ZM198.899 31.0746C198.375 29.9885 197.677 28.9958 196.833 28.1359C195.877 27.163 194.733 26.3945 193.472 25.8769C192.21 25.3593 190.857 25.1033 189.495 25.1244C188.136 25.1226 186.789 25.3892 185.533 25.9089C184.277 26.4287 183.136 27.1914 182.174 28.1534C181.213 29.1154 180.45 30.2579 179.929 31.5155C179.409 32.7731 179.141 34.1212 179.141 35.4826C179.142 37.5346 179.751 39.5402 180.89 41.2453C182.03 42.9505 183.649 44.2786 185.542 45.0614C187.436 45.8442 189.518 46.0465 191.527 45.6427C193.535 45.2388 195.379 44.247 196.824 42.7929C197.677 41.949 198.379 40.9641 198.899 39.8815V31.0746Z" fill="white"/>
<path d="M172.82 12.2505V16.2492H169.782V12.2505H172.82ZM172.82 22.2585V48.643H169.782V22.2903L172.82 22.2585Z" fill="white"/>
<path d="M221.754 48.6748H217.885V6.03656H243.674V9.9078H221.754V25.411H238.52V29.2868H221.754V48.6748Z" fill="white"/>
<path d="M248.124 43.7618C250.127 45.2619 252.601 45.9888 255.095 45.8091C257.589 45.6295 259.935 44.5554 261.702 42.7838L263.696 44.7808C261.856 46.6277 259.512 47.8868 256.958 48.3989C254.404 48.9111 251.756 48.6532 249.349 47.658C246.942 46.6628 244.883 44.9749 243.433 42.8078C241.983 40.6406 241.207 38.0914 241.204 35.4825C241.198 32.8694 241.966 30.3134 243.412 28.1385C244.858 25.9636 246.917 24.268 249.326 23.2666C251.735 22.2652 254.387 22.0031 256.946 22.5136C259.504 23.0242 261.853 24.2843 263.696 26.1342C264.023 26.4891 264.336 26.853 264.636 27.2306L248.124 43.7618ZM260.658 27.2215C259.122 26.0479 257.29 25.3279 255.367 25.143C253.445 24.958 251.509 25.3154 249.778 26.1748C248.048 27.0342 246.592 28.3612 245.575 30.006C244.558 31.6508 244.021 33.5478 244.024 35.4825C243.987 37.7558 244.729 39.9731 246.126 41.7648L260.658 27.2215Z" fill="white"/>
<path d="M269.74 30.647V48.6748H266.788V23.2593H269.74V25.8022C270.895 24.6657 272.263 23.77 273.766 23.1672C275.269 22.5643 276.876 22.2663 278.495 22.2903V25.2245C277.21 25.202 275.935 25.4435 274.747 25.9341C273.559 26.4247 272.484 27.1539 271.588 28.0767C270.838 28.8284 270.214 29.6963 269.74 30.647V30.647Z" fill="white"/>
<path d="M282.845 30.647V48.6749H279.921V23.2593H282.845V25.8023C284.003 24.663 285.375 23.7657 286.882 23.1628C288.389 22.5599 290.001 22.2633 291.623 22.2904V25.2245C290.341 25.2021 289.067 25.4428 287.881 25.9318C286.695 26.4207 285.621 27.1476 284.725 28.0677C283.963 28.8198 283.328 29.6909 282.845 30.647V30.647Z" fill="white"/>
<path d="M297.281 43.7619C299.284 45.2623 301.76 45.9893 304.255 45.8097C306.749 45.63 309.096 44.5558 310.864 42.7838L312.88 44.7809C311.042 46.6372 308.695 47.9045 306.137 48.4221C303.579 48.9396 300.924 48.684 298.511 47.6877C296.099 46.6913 294.036 44.9992 292.584 42.8262C291.133 40.6531 290.359 38.0971 290.361 35.4826C290.361 32.8689 291.134 30.3138 292.583 28.1402C294.032 25.9666 296.091 24.272 298.501 23.2705C300.911 22.2691 303.563 22.0058 306.123 22.5139C308.682 23.022 311.033 24.2787 312.88 26.1252C313.207 26.48 313.52 26.844 313.82 27.2215L297.281 43.7619ZM309.81 27.2215C308.274 26.0511 306.442 25.3338 304.521 25.1504C302.6 24.9671 300.666 25.325 298.937 26.1839C297.208 27.0428 295.753 28.3685 294.736 30.0115C293.719 31.6544 293.18 33.5494 293.181 35.4826C293.146 37.7592 293.889 39.9793 295.288 41.774L309.81 27.2215Z" fill="white"/>
<path d="M318.901 12.2552V16.2493H315.863V12.2552H318.901ZM318.901 22.2631V48.6476H315.863V22.2904L318.901 22.2631Z" fill="white"/>
<path d="M325.332 30.647V48.6749H322.416V23.2593H325.345V25.8022C326.501 24.6646 327.871 23.7683 329.376 23.1654C330.88 22.5625 332.489 22.2651 334.109 22.2904V25.2245C332.825 25.202 331.549 25.4435 330.361 25.9341C329.173 26.4247 328.098 27.1539 327.203 28.0768C326.445 28.8268 325.813 29.6947 325.332 30.647V30.647Z" fill="white"/>
<path d="M355.176 23.2001H358V47.7195H355.176V44.7035C353.962 45.9718 352.502 46.9774 350.885 47.6581C349.268 48.3388 347.529 48.6802 345.776 48.6612C342.283 48.6612 338.933 47.2713 336.464 44.7973C333.994 42.3232 332.606 38.9677 332.606 35.4689C332.606 31.9701 333.994 28.6146 336.464 26.1406C338.933 23.6666 342.283 22.2767 345.776 22.2767C347.529 22.2577 349.268 22.5991 350.885 23.2798C352.502 23.9605 353.962 24.9661 355.176 26.2344V23.2001ZM355.176 31.0746C354.652 29.9885 353.954 28.9958 353.109 28.1359C352.154 27.1631 351.011 26.3947 349.751 25.8771C348.49 25.3595 347.138 25.1034 345.776 25.1244C344.417 25.1232 343.071 25.3902 341.816 25.9103C340.56 26.4303 339.419 27.1931 338.458 28.155C337.497 29.117 336.735 30.2593 336.214 31.5166C335.694 32.7739 335.426 34.1216 335.426 35.4826C335.427 37.5346 336.036 39.5402 337.176 41.2453C338.315 42.9505 339.934 44.2786 341.828 45.0614C343.721 45.8442 345.804 46.0465 347.812 45.6427C349.821 45.2388 351.664 44.247 353.109 42.7929C353.959 41.951 354.658 40.9693 355.176 39.8906V31.0746Z" fill="white"/>
<path d="M85.9307 54.9935V55.5848H80.7493V59.7336H85.2359V60.325H80.7493V64.874H80.0364V54.9935H85.9307Z" fill="#076653"/>
<path d="M90.6354 64.8558H89.9133V54.9935H90.6263L90.6354 64.8558Z" fill="#076653"/>
<path d="M100.244 56.1945C100.229 56.23 100.203 56.2601 100.171 56.2812C100.139 56.3022 100.101 56.3132 100.062 56.3128C99.9727 56.2959 99.8912 56.2495 99.8308 56.1808C99.7083 56.0767 99.5777 55.9824 99.4403 55.8988C99.2498 55.7777 99.0455 55.68 98.8318 55.6076C98.5387 55.5125 98.2316 55.4679 97.9236 55.4757C97.6019 55.4689 97.2818 55.5213 96.979 55.6304C96.7241 55.7209 96.4906 55.8634 96.2933 56.0489C96.1126 56.2202 95.9702 56.428 95.8756 56.6585C95.7795 56.8907 95.7301 57.1395 95.7302 57.3909C95.7192 57.6818 95.7934 57.9696 95.9437 58.2188C96.091 58.4421 96.2827 58.6326 96.5068 58.7783C96.7531 58.9395 97.0186 59.0694 97.2969 59.165C97.5921 59.2696 97.8918 59.3743 98.2051 59.4743C98.5185 59.5744 98.8182 59.6881 99.1133 59.811C99.396 59.9262 99.6618 60.0792 99.9035 60.2659C100.137 60.4526 100.329 60.6867 100.467 60.9528C100.618 61.2689 100.691 61.6168 100.68 61.9672C100.682 62.3668 100.609 62.7632 100.467 63.1363C100.329 63.4931 100.119 63.817 99.849 64.0871C99.568 64.3653 99.2324 64.5821 98.8636 64.7239C98.437 64.8845 97.9841 64.9632 97.5285 64.9559C96.9494 64.9714 96.3745 64.8531 95.8483 64.6102C95.3797 64.3815 94.9613 64.0613 94.6177 63.6686L94.8129 63.3592C94.8353 63.3279 94.8645 63.3022 94.8984 63.2841C94.9322 63.2659 94.9698 63.2558 95.0082 63.2546C95.069 63.2657 95.1247 63.296 95.1672 63.341L95.4078 63.5457C95.4986 63.6276 95.6122 63.7141 95.7393 63.8096C95.8812 63.913 96.0334 64.0014 96.1934 64.0734C96.3834 64.1611 96.581 64.2311 96.7838 64.2827C97.0324 64.3401 97.287 64.3676 97.5421 64.3646C97.8997 64.3703 98.2553 64.3101 98.5911 64.1872C98.8796 64.0781 99.1436 63.9126 99.3677 63.7004C99.5797 63.4963 99.7441 63.2478 99.849 62.9726C99.9646 62.6834 100.022 62.3742 100.017 62.0627C100.029 61.7616 99.955 61.4634 99.8036 61.203C99.662 60.9754 99.4711 60.7826 99.245 60.6389C98.9975 60.481 98.7323 60.3528 98.4549 60.2568L97.5467 59.9565C97.2379 59.861 96.9336 59.7518 96.6385 59.629C96.354 59.5175 96.0877 59.3642 95.8483 59.1741C95.6143 58.9814 95.4239 58.7411 95.2898 58.469C95.1353 58.1394 95.0621 57.7775 95.0763 57.4136C95.0762 57.0861 95.1394 56.7617 95.2625 56.4583C95.389 56.1526 95.5759 55.8756 95.812 55.644C96.0763 55.4 96.3845 55.2086 96.7202 55.08C97.1075 54.9339 97.5189 54.8629 97.9327 54.8707C98.3978 54.8654 98.8598 54.9472 99.295 55.1118C99.7122 55.283 100.091 55.5367 100.408 55.8578L100.244 56.1945Z" fill="#076653"/>
<path d="M105.385 64.8558H104.672V54.9935H105.385V64.8558Z" fill="#076653"/>
<path d="M118.758 59.9201C118.768 60.6263 118.653 61.3286 118.418 61.9945C118.208 62.584 117.881 63.1244 117.455 63.5821C117.04 64.024 116.535 64.3715 115.975 64.6011C115.367 64.8452 114.717 64.9673 114.063 64.9604C113.412 64.9655 112.767 64.8418 112.165 64.5965C111.603 64.3671 111.096 64.0196 110.68 63.5775C110.257 63.1175 109.93 62.5778 109.717 61.9899C109.257 60.6485 109.257 59.1917 109.717 57.8503C109.93 57.2624 110.257 56.7227 110.68 56.2627C111.096 55.8193 111.602 55.4703 112.165 55.2391C112.767 54.9933 113.412 54.8711 114.063 54.8798C114.718 54.8706 115.368 54.9928 115.975 55.2391C116.536 55.467 117.041 55.8147 117.455 56.2581C117.88 56.7182 118.207 57.2599 118.418 57.8503C118.652 58.5146 118.768 59.2154 118.758 59.9201ZM118.018 59.9201C118.026 59.2916 117.931 58.6661 117.736 58.0686C117.566 57.5534 117.292 57.0783 116.933 56.6721C116.585 56.2932 116.159 55.9951 115.684 55.7987C115.169 55.5914 114.618 55.4879 114.063 55.4939C113.514 55.4882 112.969 55.5918 112.46 55.7987C111.984 55.9962 111.557 56.2941 111.206 56.6721C110.842 57.0766 110.566 57.552 110.394 58.0686C110.006 59.274 110.006 60.5708 110.394 61.7761C110.567 62.2909 110.843 62.7646 111.206 63.1681C111.553 63.549 111.982 63.8461 112.46 64.037C112.969 64.2423 113.514 64.3443 114.063 64.3372C114.618 64.3448 115.168 64.2428 115.684 64.037C116.161 63.8472 116.588 63.5499 116.933 63.1681C117.291 62.7629 117.565 62.2895 117.736 61.7761C117.932 61.1772 118.027 60.5501 118.018 59.9201V59.9201Z" fill="#076653"/>
<path d="M128.394 54.9935V55.5985H124.939V64.8558H124.23V55.5985H120.752V54.9935H128.394Z" fill="#076653"/>
<path d="M138.28 54.9935V55.5848H133.099V59.5926H137.413V60.1703H133.099V64.2644H138.28V64.8603H132.377V54.9935H138.28Z" fill="#076653"/>
<path d="M142.98 60.3932V64.8558H142.267V54.9935H144.779C145.918 54.9935 146.763 55.2118 147.326 55.6531C147.611 55.8835 147.837 56.1797 147.983 56.5163C148.13 56.853 148.192 57.2202 148.166 57.5864C148.171 57.9403 148.105 58.2915 147.971 58.6191C147.844 58.9282 147.654 59.2071 147.412 59.4379C147.155 59.6816 146.857 59.8772 146.531 60.0156C146.163 60.1737 145.772 60.2734 145.373 60.3113C145.488 60.3853 145.588 60.4793 145.669 60.5888L149.056 64.8558H148.439C148.373 64.8573 148.307 64.8432 148.248 64.8149C148.188 64.7782 148.135 64.7303 148.094 64.6739L144.942 60.6752C144.876 60.5828 144.789 60.5078 144.688 60.4569C144.553 60.4077 144.409 60.3861 144.265 60.3932H142.98ZM142.98 59.8655H144.688C145.085 59.87 145.482 59.8164 145.864 59.7063C146.183 59.6136 146.481 59.459 146.74 59.2514C146.973 59.0629 147.16 58.8232 147.285 58.5508C147.409 58.2636 147.472 57.9539 147.471 57.641C147.493 57.3446 147.442 57.0474 147.322 56.7754C147.203 56.5034 147.018 56.2649 146.786 56.0807C146.187 55.7029 145.485 55.5245 144.779 55.5712H142.962L142.98 59.8655Z" fill="#076653"/>
<path d="M161.34 64.8558H160.79C160.731 64.858 160.673 64.8386 160.627 64.8012C160.583 64.7653 160.55 64.7181 160.532 64.6648L159.392 61.8034H154.537L153.379 64.6648C153.361 64.7173 153.328 64.7633 153.284 64.7967C153.237 64.8368 153.177 64.8579 153.116 64.8558H152.58L156.603 54.9935H157.316L161.34 64.8558ZM154.751 61.2712H159.16L157.148 56.2672C157.117 56.1899 157.085 56.0989 157.053 55.9988C157.021 55.8987 156.989 55.7941 156.958 55.6804L156.858 55.9988C156.826 56.0989 156.794 56.1899 156.762 56.2763L154.751 61.2712Z" fill="#076653"/>
<path d="M166.035 60.8845V64.8558H165.327V54.9934H167.865C168.798 54.9256 169.725 55.1951 170.476 55.7531C170.775 56.0266 171.009 56.3633 171.161 56.7386C171.314 57.1139 171.381 57.5185 171.357 57.923C171.362 58.3314 171.28 58.736 171.117 59.1103C170.958 59.4698 170.723 59.7899 170.427 60.0474C170.101 60.3193 169.726 60.5263 169.323 60.657C168.853 60.8104 168.36 60.8857 167.865 60.8799L166.035 60.8845ZM166.035 60.3113H167.852C168.248 60.3184 168.643 60.2569 169.019 60.1293C169.34 60.0221 169.636 59.852 169.891 59.6289C170.127 59.4191 170.315 59.1597 170.44 58.8692C170.571 58.5694 170.637 58.2456 170.635 57.9185C170.655 57.593 170.602 57.2671 170.482 56.9643C170.361 56.6615 170.174 56.3893 169.936 56.1671C169.339 55.7162 168.598 55.498 167.852 55.553H166.035V60.3113Z" fill="#076653"/>
<path d="M181.266 54.9935V55.5848H176.085V59.5926H180.394V60.1703H176.085V64.2644H181.266V64.8603H175.363V54.9935H181.266Z" fill="#076653"/>
<path d="M188.981 64.3463C189.417 64.3527 189.85 64.2691 190.253 64.1007C190.614 63.9405 190.937 63.7065 191.202 63.4138C191.466 63.1103 191.668 62.7579 191.797 62.3766C191.936 61.9634 192.005 61.5298 192.001 61.0937V54.9935H192.71V61.0937C192.714 61.6116 192.626 62.126 192.451 62.6131C192.29 63.0703 192.038 63.4898 191.711 63.8459C191.381 64.2023 190.981 64.4845 190.534 64.6738C189.538 65.0742 188.425 65.0742 187.428 64.6738C186.982 64.4845 186.581 64.2023 186.252 63.8459C185.924 63.4898 185.672 63.0703 185.512 62.6131C185.336 62.126 185.249 61.6116 185.253 61.0937V54.9935H185.971V61.0846C185.967 61.5221 186.036 61.9572 186.175 62.372C186.301 62.7522 186.502 63.1033 186.765 63.4047C187.028 63.6997 187.35 63.9354 187.71 64.0961C188.112 64.2661 188.545 64.3513 188.981 64.3463Z" fill="#076653"/>
<path d="M204.348 54.9935V55.5985H200.888V64.8558H200.18V55.5985H196.701V54.9935H204.348Z" fill="#076653"/>
<path d="M215.101 64.8558H214.552C214.494 64.8586 214.437 64.8391 214.393 64.8012C214.347 64.767 214.312 64.7194 214.293 64.6647L213.131 61.8034H208.299L207.141 64.6647C207.123 64.7173 207.09 64.7632 207.046 64.7967C206.999 64.8368 206.939 64.8579 206.878 64.8558H206.337L210.365 54.9935H211.073L215.101 64.8558ZM208.512 61.2712H212.922L210.915 56.2672C210.876 56.18 210.842 56.0903 210.815 55.9988C210.783 55.8987 210.751 55.7941 210.719 55.6804C210.687 55.7941 210.651 55.8987 210.619 55.9988C210.588 56.0989 210.556 56.1899 210.524 56.2763L208.512 61.2712Z" fill="#076653"/>
</g>
<defs>
<clipPath id="clip0">
<rect width="358" height="69" fill="white"/>
</clipPath>
</defs>
</svg>
